<mxfile host="app.diagrams.net" modified="2022-06-26T15:06:33.350Z" agent="5.0 (Macintosh; Intel Mac OS X 10_15_7) AppleWebKit/537.36 (KHTML, like Gecko) Chrome/102.0.5005.61 Safari/537.36" etag="cj3gtvOsd48z7P7G_VL2" version="16.1.0" type="github">
  <diagram id="SVcALHPFGE-1wp2uPD-K" name="Page-1">
    <mxGraphModel dx="885" dy="461" grid="1" gridSize="10" guides="1" tooltips="1" connect="1" arrows="1" fold="1" page="1" pageScale="1" pageWidth="827" pageHeight="1169" math="0" shadow="0">
      <root>
        <mxCell id="0" />
        <mxCell id="1" parent="0" />
        <mxCell id="Oy29T_NEQOy5cWnn_5qz-49" value="" style="rounded=0;whiteSpace=wrap;html=1;fillColor=#cdeb8b;strokeColor=#36393d;" vertex="1" parent="1">
          <mxGeometry x="200" y="660" width="280" height="10" as="geometry" />
        </mxCell>
        <mxCell id="Oy29T_NEQOy5cWnn_5qz-48" value="" style="rounded=0;whiteSpace=wrap;html=1;fillColor=#cdeb8b;strokeColor=#36393d;" vertex="1" parent="1">
          <mxGeometry x="120" y="370" width="280" height="10" as="geometry" />
        </mxCell>
        <mxCell id="Oy29T_NEQOy5cWnn_5qz-1" value="" style="rounded=0;whiteSpace=wrap;html=1;fillColor=#f8cecc;strokeColor=#b85450;" vertex="1" parent="1">
          <mxGeometry x="120" y="360" width="280" height="10" as="geometry" />
        </mxCell>
        <mxCell id="Oy29T_NEQOy5cWnn_5qz-2" value="" style="rounded=0;whiteSpace=wrap;html=1;" vertex="1" parent="1">
          <mxGeometry x="120" y="440" width="280" height="10" as="geometry" />
        </mxCell>
        <mxCell id="Oy29T_NEQOy5cWnn_5qz-3" value="" style="rounded=0;whiteSpace=wrap;html=1;" vertex="1" parent="1">
          <mxGeometry x="120" y="520" width="280" height="10" as="geometry" />
        </mxCell>
        <mxCell id="Oy29T_NEQOy5cWnn_5qz-4" value="" style="endArrow=classic;html=1;rounded=0;exitX=0;exitY=1;exitDx=0;exitDy=0;entryX=0.145;entryY=0.059;entryDx=0;entryDy=0;entryPerimeter=0;" edge="1" parent="1" source="Oy29T_NEQOy5cWnn_5qz-1" target="Oy29T_NEQOy5cWnn_5qz-2">
          <mxGeometry width="50" height="50" relative="1" as="geometry">
            <mxPoint x="470" y="350" as="sourcePoint" />
            <mxPoint x="520" y="300" as="targetPoint" />
          </mxGeometry>
        </mxCell>
        <mxCell id="Oy29T_NEQOy5cWnn_5qz-5" value="" style="endArrow=classic;html=1;rounded=0;entryX=0.142;entryY=-0.028;entryDx=0;entryDy=0;entryPerimeter=0;" edge="1" parent="1" target="Oy29T_NEQOy5cWnn_5qz-3">
          <mxGeometry width="50" height="50" relative="1" as="geometry">
            <mxPoint x="120" y="370" as="sourcePoint" />
            <mxPoint x="650" y="370" as="targetPoint" />
          </mxGeometry>
        </mxCell>
        <mxCell id="Oy29T_NEQOy5cWnn_5qz-6" value="" style="endArrow=classic;html=1;rounded=0;exitX=0.142;exitY=0.016;exitDx=0;exitDy=0;exitPerimeter=0;entryX=0.288;entryY=1.103;entryDx=0;entryDy=0;entryPerimeter=0;" edge="1" parent="1" source="Oy29T_NEQOy5cWnn_5qz-2" target="Oy29T_NEQOy5cWnn_5qz-1">
          <mxGeometry width="50" height="50" relative="1" as="geometry">
            <mxPoint x="590" y="380" as="sourcePoint" />
            <mxPoint x="640" y="330" as="targetPoint" />
          </mxGeometry>
        </mxCell>
        <mxCell id="Oy29T_NEQOy5cWnn_5qz-8" value="" style="rounded=0;whiteSpace=wrap;html=1;fillColor=#cdeb8b;strokeColor=#36393d;" vertex="1" parent="1">
          <mxGeometry x="160" y="440" width="280" height="10" as="geometry" />
        </mxCell>
        <mxCell id="Oy29T_NEQOy5cWnn_5qz-9" value="" style="rounded=0;whiteSpace=wrap;html=1;fillColor=#cdeb8b;strokeColor=#36393d;" vertex="1" parent="1">
          <mxGeometry x="160" y="520" width="280" height="10" as="geometry" />
        </mxCell>
        <mxCell id="Oy29T_NEQOy5cWnn_5qz-10" value="" style="rounded=0;whiteSpace=wrap;html=1;fillColor=#e51400;fontColor=#ffffff;strokeColor=#B20000;" vertex="1" parent="1">
          <mxGeometry x="200" y="360" width="200" height="10" as="geometry" />
        </mxCell>
        <mxCell id="Oy29T_NEQOy5cWnn_5qz-11" value="主" style="text;html=1;strokeColor=none;fillColor=none;align=center;verticalAlign=middle;whiteSpace=wrap;rounded=0;" vertex="1" parent="1">
          <mxGeometry x="60" y="350" width="30" height="30" as="geometry" />
        </mxCell>
        <mxCell id="Oy29T_NEQOy5cWnn_5qz-12" value="备" style="text;html=1;strokeColor=none;fillColor=none;align=center;verticalAlign=middle;whiteSpace=wrap;rounded=0;" vertex="1" parent="1">
          <mxGeometry x="60" y="430" width="30" height="30" as="geometry" />
        </mxCell>
        <mxCell id="Oy29T_NEQOy5cWnn_5qz-13" value="备" style="text;html=1;strokeColor=none;fillColor=none;align=center;verticalAlign=middle;whiteSpace=wrap;rounded=0;" vertex="1" parent="1">
          <mxGeometry x="60" y="510" width="30" height="30" as="geometry" />
        </mxCell>
        <mxCell id="Oy29T_NEQOy5cWnn_5qz-7" value="" style="endArrow=classic;html=1;rounded=0;exitX=0.139;exitY=-0.028;exitDx=0;exitDy=0;exitPerimeter=0;entryX=0;entryY=1;entryDx=0;entryDy=0;" edge="1" parent="1" source="Oy29T_NEQOy5cWnn_5qz-3" target="Oy29T_NEQOy5cWnn_5qz-10">
          <mxGeometry width="50" height="50" relative="1" as="geometry">
            <mxPoint x="550" y="460" as="sourcePoint" />
            <mxPoint x="600" y="410" as="targetPoint" />
          </mxGeometry>
        </mxCell>
        <mxCell id="Oy29T_NEQOy5cWnn_5qz-14" value="" style="endArrow=none;html=1;rounded=0;exitX=0;exitY=0;exitDx=0;exitDy=0;" edge="1" parent="1" source="Oy29T_NEQOy5cWnn_5qz-1">
          <mxGeometry width="50" height="50" relative="1" as="geometry">
            <mxPoint x="110" y="360" as="sourcePoint" />
            <mxPoint x="120" y="320" as="targetPoint" />
          </mxGeometry>
        </mxCell>
        <mxCell id="Oy29T_NEQOy5cWnn_5qz-15" value="" style="endArrow=none;html=1;rounded=0;exitX=0;exitY=0;exitDx=0;exitDy=0;" edge="1" parent="1" source="Oy29T_NEQOy5cWnn_5qz-10">
          <mxGeometry width="50" height="50" relative="1" as="geometry">
            <mxPoint x="180" y="370" as="sourcePoint" />
            <mxPoint x="200" y="320" as="targetPoint" />
          </mxGeometry>
        </mxCell>
        <mxCell id="Oy29T_NEQOy5cWnn_5qz-16" value="" style="endArrow=classic;startArrow=classic;html=1;rounded=0;" edge="1" parent="1">
          <mxGeometry width="50" height="50" relative="1" as="geometry">
            <mxPoint x="120" y="340" as="sourcePoint" />
            <mxPoint x="200" y="340" as="targetPoint" />
          </mxGeometry>
        </mxCell>
        <mxCell id="Oy29T_NEQOy5cWnn_5qz-17" value="租约计时" style="text;html=1;strokeColor=none;fillColor=none;align=center;verticalAlign=middle;whiteSpace=wrap;rounded=0;" vertex="1" parent="1">
          <mxGeometry x="130" y="310" width="60" height="30" as="geometry" />
        </mxCell>
        <mxCell id="Oy29T_NEQOy5cWnn_5qz-18" value="" style="endArrow=none;html=1;rounded=0;exitX=0;exitY=0;exitDx=0;exitDy=0;" edge="1" parent="1">
          <mxGeometry width="50" height="50" relative="1" as="geometry">
            <mxPoint x="400" y="360" as="sourcePoint" />
            <mxPoint x="400" y="320" as="targetPoint" />
          </mxGeometry>
        </mxCell>
        <mxCell id="Oy29T_NEQOy5cWnn_5qz-19" value="" style="endArrow=classic;startArrow=classic;html=1;rounded=0;" edge="1" parent="1">
          <mxGeometry width="50" height="50" relative="1" as="geometry">
            <mxPoint x="200" y="340" as="sourcePoint" />
            <mxPoint x="400" y="340" as="targetPoint" />
          </mxGeometry>
        </mxCell>
        <mxCell id="Oy29T_NEQOy5cWnn_5qz-20" value="租约生效" style="text;html=1;strokeColor=none;fillColor=none;align=center;verticalAlign=middle;whiteSpace=wrap;rounded=0;" vertex="1" parent="1">
          <mxGeometry x="280" y="310" width="60" height="30" as="geometry" />
        </mxCell>
        <mxCell id="Oy29T_NEQOy5cWnn_5qz-21" value="" style="rounded=0;whiteSpace=wrap;html=1;fillColor=#e51400;strokeColor=#B20000;fontColor=#ffffff;" vertex="1" parent="1">
          <mxGeometry x="120" y="650" width="280" height="10" as="geometry" />
        </mxCell>
        <mxCell id="Oy29T_NEQOy5cWnn_5qz-27" value="" style="rounded=0;whiteSpace=wrap;html=1;fillColor=#cdeb8b;strokeColor=#36393d;" vertex="1" parent="1">
          <mxGeometry x="134" y="730" width="280" height="10" as="geometry" />
        </mxCell>
        <mxCell id="Oy29T_NEQOy5cWnn_5qz-28" value="" style="rounded=0;whiteSpace=wrap;html=1;fillColor=#cdeb8b;strokeColor=#36393d;" vertex="1" parent="1">
          <mxGeometry x="134" y="810" width="280" height="10" as="geometry" />
        </mxCell>
        <mxCell id="Oy29T_NEQOy5cWnn_5qz-30" value="旧主A" style="text;html=1;strokeColor=none;fillColor=none;align=center;verticalAlign=middle;whiteSpace=wrap;rounded=0;" vertex="1" parent="1">
          <mxGeometry x="60" y="640" width="40" height="30" as="geometry" />
        </mxCell>
        <mxCell id="Oy29T_NEQOy5cWnn_5qz-31" value="备B" style="text;html=1;strokeColor=none;fillColor=none;align=center;verticalAlign=middle;whiteSpace=wrap;rounded=0;" vertex="1" parent="1">
          <mxGeometry x="60" y="720" width="30" height="30" as="geometry" />
        </mxCell>
        <mxCell id="Oy29T_NEQOy5cWnn_5qz-32" value="新主C" style="text;html=1;strokeColor=none;fillColor=none;align=center;verticalAlign=middle;whiteSpace=wrap;rounded=0;" vertex="1" parent="1">
          <mxGeometry x="60" y="800" width="40" height="30" as="geometry" />
        </mxCell>
        <mxCell id="Oy29T_NEQOy5cWnn_5qz-37" value="租约失效" style="text;html=1;strokeColor=none;fillColor=none;align=center;verticalAlign=middle;whiteSpace=wrap;rounded=0;" vertex="1" parent="1">
          <mxGeometry x="310" y="600" width="60" height="30" as="geometry" />
        </mxCell>
        <mxCell id="Oy29T_NEQOy5cWnn_5qz-38" value="" style="endArrow=none;html=1;rounded=0;exitX=0;exitY=0;exitDx=0;exitDy=0;" edge="1" parent="1">
          <mxGeometry width="50" height="50" relative="1" as="geometry">
            <mxPoint x="400" y="650" as="sourcePoint" />
            <mxPoint x="400" y="610" as="targetPoint" />
          </mxGeometry>
        </mxCell>
        <mxCell id="Oy29T_NEQOy5cWnn_5qz-39" value="" style="endArrow=classic;startArrow=classic;html=1;rounded=0;" edge="1" parent="1">
          <mxGeometry width="50" height="50" relative="1" as="geometry">
            <mxPoint x="280" y="630" as="sourcePoint" />
            <mxPoint x="400" y="630" as="targetPoint" />
          </mxGeometry>
        </mxCell>
        <mxCell id="Oy29T_NEQOy5cWnn_5qz-25" value="" style="endArrow=classic;html=1;rounded=0;entryX=0.142;entryY=-0.028;entryDx=0;entryDy=0;entryPerimeter=0;fillColor=#0050ef;strokeColor=#001DBC;" edge="1" parent="1">
          <mxGeometry width="50" height="50" relative="1" as="geometry">
            <mxPoint x="120" y="660" as="sourcePoint" />
            <mxPoint x="159.76" y="809.72" as="targetPoint" />
          </mxGeometry>
        </mxCell>
        <mxCell id="Oy29T_NEQOy5cWnn_5qz-33" value="" style="endArrow=classic;html=1;rounded=0;exitX=0.139;exitY=-0.028;exitDx=0;exitDy=0;exitPerimeter=0;entryX=0;entryY=1;entryDx=0;entryDy=0;fillColor=#0050ef;strokeColor=#001DBC;" edge="1" parent="1">
          <mxGeometry width="50" height="50" relative="1" as="geometry">
            <mxPoint x="158.92000000000007" y="809.72" as="sourcePoint" />
            <mxPoint x="200" y="660" as="targetPoint" />
          </mxGeometry>
        </mxCell>
        <mxCell id="Oy29T_NEQOy5cWnn_5qz-41" value="" style="endArrow=classic;html=1;rounded=0;exitX=0.286;exitY=0.895;exitDx=0;exitDy=0;exitPerimeter=0;entryX=0.376;entryY=-0.07;entryDx=0;entryDy=0;entryPerimeter=0;" edge="1" parent="1" source="Oy29T_NEQOy5cWnn_5qz-21" target="Oy29T_NEQOy5cWnn_5qz-27">
          <mxGeometry width="50" height="50" relative="1" as="geometry">
            <mxPoint x="480" y="630" as="sourcePoint" />
            <mxPoint x="530" y="580" as="targetPoint" />
          </mxGeometry>
        </mxCell>
        <mxCell id="Oy29T_NEQOy5cWnn_5qz-42" value="" style="endArrow=classic;html=1;rounded=0;entryX=0.373;entryY=-0.086;entryDx=0;entryDy=0;entryPerimeter=0;fillColor=#6a00ff;strokeColor=#000000;" edge="1" parent="1" target="Oy29T_NEQOy5cWnn_5qz-28">
          <mxGeometry width="50" height="50" relative="1" as="geometry">
            <mxPoint x="200" y="660" as="sourcePoint" />
            <mxPoint x="248.7199999999998" y="738.71" as="targetPoint" />
          </mxGeometry>
        </mxCell>
        <mxCell id="Oy29T_NEQOy5cWnn_5qz-43" value="" style="endArrow=classic;html=1;rounded=0;exitX=0.373;exitY=0.001;exitDx=0;exitDy=0;exitPerimeter=0;entryX=0.58;entryY=1.001;entryDx=0;entryDy=0;entryPerimeter=0;" edge="1" parent="1" source="Oy29T_NEQOy5cWnn_5qz-27" target="Oy29T_NEQOy5cWnn_5qz-21">
          <mxGeometry width="50" height="50" relative="1" as="geometry">
            <mxPoint x="560" y="680" as="sourcePoint" />
            <mxPoint x="610" y="630" as="targetPoint" />
          </mxGeometry>
        </mxCell>
        <mxCell id="Oy29T_NEQOy5cWnn_5qz-46" value="" style="rounded=0;whiteSpace=wrap;html=1;fillColor=#e51400;strokeColor=#B20000;fontColor=#ffffff;" vertex="1" parent="1">
          <mxGeometry x="160" y="820" width="280" height="10" as="geometry" />
        </mxCell>
        <mxCell id="Oy29T_NEQOy5cWnn_5qz-47" value="" style="rounded=0;whiteSpace=wrap;html=1;fillColor=#fad9d5;strokeColor=#ae4132;" vertex="1" parent="1">
          <mxGeometry x="160" y="820" width="160" height="10" as="geometry" />
        </mxCell>
        <mxCell id="Oy29T_NEQOy5cWnn_5qz-50" value="" style="rounded=0;whiteSpace=wrap;html=1;fillColor=#cdeb8b;strokeColor=#36393d;" vertex="1" parent="1">
          <mxGeometry x="240" y="730" width="280" height="10" as="geometry" />
        </mxCell>
        <mxCell id="Oy29T_NEQOy5cWnn_5qz-51" value="" style="rounded=0;whiteSpace=wrap;html=1;fillColor=#cdeb8b;strokeColor=#36393d;" vertex="1" parent="1">
          <mxGeometry x="240" y="810" width="280" height="10" as="geometry" />
        </mxCell>
        <mxCell id="Oy29T_NEQOy5cWnn_5qz-44" value="" style="endArrow=classic;html=1;rounded=0;exitX=0.37;exitY=0.045;exitDx=0;exitDy=0;exitPerimeter=0;entryX=0.579;entryY=0.967;entryDx=0;entryDy=0;entryPerimeter=0;fillColor=#ffff88;strokeColor=#000000;" edge="1" parent="1" source="Oy29T_NEQOy5cWnn_5qz-28" target="Oy29T_NEQOy5cWnn_5qz-21">
          <mxGeometry width="50" height="50" relative="1" as="geometry">
            <mxPoint x="540" y="730" as="sourcePoint" />
            <mxPoint x="590" y="680" as="targetPoint" />
          </mxGeometry>
        </mxCell>
        <mxCell id="Oy29T_NEQOy5cWnn_5qz-45" value="" style="endArrow=classic;html=1;rounded=0;exitX=0.577;exitY=0.981;exitDx=0;exitDy=0;exitPerimeter=0;entryX=0.664;entryY=-0.019;entryDx=0;entryDy=0;entryPerimeter=0;strokeColor=#FF00FF;" edge="1" parent="1" source="Oy29T_NEQOy5cWnn_5qz-21" target="Oy29T_NEQOy5cWnn_5qz-28">
          <mxGeometry width="50" height="50" relative="1" as="geometry">
            <mxPoint x="550" y="700" as="sourcePoint" />
            <mxPoint x="600" y="650" as="targetPoint" />
          </mxGeometry>
        </mxCell>
        <mxCell id="Oy29T_NEQOy5cWnn_5qz-52" value="" style="rounded=0;whiteSpace=wrap;html=1;fillColor=#fad9d5;strokeColor=#ae4132;" vertex="1" parent="1">
          <mxGeometry x="280" y="650" width="120" height="10" as="geometry" />
        </mxCell>
        <mxCell id="Oy29T_NEQOy5cWnn_5qz-53" value="租约未生效" style="text;html=1;strokeColor=none;fillColor=none;align=center;verticalAlign=middle;whiteSpace=wrap;rounded=0;" vertex="1" parent="1">
          <mxGeometry x="210" y="850" width="70" height="30" as="geometry" />
        </mxCell>
        <mxCell id="Oy29T_NEQOy5cWnn_5qz-54" value="" style="endArrow=none;html=1;rounded=0;exitX=0;exitY=0;exitDx=0;exitDy=0;" edge="1" parent="1">
          <mxGeometry width="50" height="50" relative="1" as="geometry">
            <mxPoint x="279.7" y="650" as="sourcePoint" />
            <mxPoint x="279.7" y="610" as="targetPoint" />
          </mxGeometry>
        </mxCell>
        <mxCell id="Oy29T_NEQOy5cWnn_5qz-55" value="" style="endArrow=none;html=1;rounded=0;exitX=0;exitY=0;exitDx=0;exitDy=0;" edge="1" parent="1">
          <mxGeometry width="50" height="50" relative="1" as="geometry">
            <mxPoint x="159.70000000000005" y="870" as="sourcePoint" />
            <mxPoint x="159.70000000000005" y="830" as="targetPoint" />
          </mxGeometry>
        </mxCell>
        <mxCell id="Oy29T_NEQOy5cWnn_5qz-56" value="" style="endArrow=none;html=1;rounded=0;exitX=0;exitY=0;exitDx=0;exitDy=0;" edge="1" parent="1">
          <mxGeometry width="50" height="50" relative="1" as="geometry">
            <mxPoint x="320" y="870" as="sourcePoint" />
            <mxPoint x="320" y="830" as="targetPoint" />
          </mxGeometry>
        </mxCell>
        <mxCell id="Oy29T_NEQOy5cWnn_5qz-57" value="" style="endArrow=classic;startArrow=classic;html=1;rounded=0;" edge="1" parent="1">
          <mxGeometry width="50" height="50" relative="1" as="geometry">
            <mxPoint x="160" y="850" as="sourcePoint" />
            <mxPoint x="320" y="850" as="targetPoint" />
          </mxGeometry>
        </mxCell>
        <mxCell id="Oy29T_NEQOy5cWnn_5qz-59" value="" style="endArrow=none;html=1;rounded=0;exitX=0;exitY=0;exitDx=0;exitDy=0;" edge="1" parent="1">
          <mxGeometry width="50" height="50" relative="1" as="geometry">
            <mxPoint x="119.70000000000005" y="650" as="sourcePoint" />
            <mxPoint x="119.70000000000005" y="610" as="targetPoint" />
          </mxGeometry>
        </mxCell>
        <mxCell id="Oy29T_NEQOy5cWnn_5qz-61" value="" style="endArrow=classic;startArrow=classic;html=1;rounded=0;" edge="1" parent="1">
          <mxGeometry width="50" height="50" relative="1" as="geometry">
            <mxPoint x="120" y="630" as="sourcePoint" />
            <mxPoint x="280" y="630" as="targetPoint" />
          </mxGeometry>
        </mxCell>
        <mxCell id="Oy29T_NEQOy5cWnn_5qz-62" value="租约有效" style="text;html=1;strokeColor=none;fillColor=none;align=center;verticalAlign=middle;whiteSpace=wrap;rounded=0;" vertex="1" parent="1">
          <mxGeometry x="170" y="600" width="60" height="30" as="geometry" />
        </mxCell>
        <mxCell id="Oy29T_NEQOy5cWnn_5qz-63" value="" style="endArrow=none;html=1;rounded=0;exitX=0;exitY=0;exitDx=0;exitDy=0;" edge="1" parent="1">
          <mxGeometry width="50" height="50" relative="1" as="geometry">
            <mxPoint x="440" y="870" as="sourcePoint" />
            <mxPoint x="440" y="830" as="targetPoint" />
          </mxGeometry>
        </mxCell>
        <mxCell id="Oy29T_NEQOy5cWnn_5qz-64" value="" style="endArrow=classic;startArrow=classic;html=1;rounded=0;" edge="1" parent="1">
          <mxGeometry width="50" height="50" relative="1" as="geometry">
            <mxPoint x="320" y="850" as="sourcePoint" />
            <mxPoint x="440" y="850" as="targetPoint" />
          </mxGeometry>
        </mxCell>
        <mxCell id="Oy29T_NEQOy5cWnn_5qz-65" value="租约生效" style="text;html=1;strokeColor=none;fillColor=none;align=center;verticalAlign=middle;whiteSpace=wrap;rounded=0;" vertex="1" parent="1">
          <mxGeometry x="345" y="850" width="70" height="30" as="geometry" />
        </mxCell>
      </root>
    </mxGraphModel>
  </diagram>
</mxfile>
